<svg width="24" height="24" viewBox="0 0 512 512" fill="none"
  xmlns="http://www.w3.org/2000/svg">
  <path d="M0 20C0 8.95431 8.95431 0 20 0H492C503.046 0 512 8.95431 512 20V492C512 503.046 503.046 512 492 512H20C8.95431 512 0 503.046 0 492V20Z" fill="#1a1a1a" />
  <path fill-rule="evenodd" clip-rule="evenodd" d="M135.701 229.775C135.701 340.961 134.277 371.128 128.811 375.665C125.021 378.808 114.648 382.833 105.761 384.609C91.4594 387.466 89.6 389.827 89.6 405.12C89.6 421.724 90.3478 422.39 108.809 422.113C119.376 421.955 135.87 419.072 145.464 415.713C155.063 412.349 167.74 403.098 173.636 395.151C183.824 381.43 184.449 373.396 186.114 235.151L187.871 89.6H135.701V229.775ZM233.024 422.4H279.125L279.355 367.36C279.555 319.626 281.199 309.263 291.725 289.28L303.86 266.24L309.669 281.6C312.865 290.048 326.311 325.187 339.547 359.68L363.612 422.4H422.4L412.77 398.08C407.474 384.707 389.064 339.743 371.863 298.168C354.663 256.594 340.592 221.01 340.592 219.09C340.592 217.17 355.575 188.508 373.887 155.402C392.199 122.296 407.182 93.9469 407.182 92.4058C407.182 90.8595 394.519 89.6 379.045 89.6H350.908L281.686 225.28L278.827 89.6H233.024V422.4Z" fill="#e6e6e6" />
</svg>
